<?xml version="1.0" encoding="UTF-8"?>
<svg id="AstraVerse" xmlns="http://www.w3.org/2000/svg" viewBox="0 0 3173.5385 1476.3956">
  <defs>
    <style>
      .cls-1 {
        opacity: .99;
      }

      .cls-2 {
        fill: #fff;
        stroke-width: 0px;
      }
    </style>
  </defs>
  <g id="A_V" data-name="A V" class="cls-1">
    <path id="A" class="cls-2" d="M1391.2361,867.9037h-38.0676c3.3217-5.5324,138.1091-230.1173,141.618-235.9755,5.6073-10.0839,16.6128-16.3411,28.7577-16.3411h22.246c22.9974,41.7273,116.9468,212.424,138.8948,252.3166h-34.1348c-7.2111,0-13.8403-3.8598-17.2371-10.0298-16.981-30.8427-32.9611-59.872-44.2442-80.3516l-64.1147-116.4882c-76.3639,124.8684-120.872,197.6469-122.6844,200.6354-2.2105,3.8502-6.4205,6.2342-11.0336,6.2342Z"/>
    <path id="V" class="cls-2" d="M1720.0492,867.9037h-34.9812c28.2396-51.5057,103.6357-188.995,130.4915-237.9514,4.8453-8.8574,14.4385-14.3652,25.0354-14.3652h28.5305c-.0698.1278-133.6208,243.2849-133.3987,243.2849-3.059,5.5726-9.0674,9.0317-15.6776,9.0317Z"/>
  </g>
  <g>
    <path id="A-2" data-name="A" class="cls-2" d="M340.5907,865.6341h-38.471c3.3569-5.5986,139.5726-232.8691,143.1187-238.7973,5.6668-10.2045,16.7888-16.5365,29.0624-16.5365h22.4818c23.2411,42.2263,118.1861,214.9642,140.3666,255.3338h-34.4965c-7.2875,0-13.9869-3.906-17.4198-10.1498-17.1609-31.2115-33.3104-60.588-44.713-81.3125l-64.7941-117.8812c-77.1731,126.3616-122.1529,200.0105-123.9845,203.0347-2.2339,3.8962-6.4886,6.3088-11.1505,6.3088Z"/>
    <path id="S" class="cls-2" d="M633.474,683.7711c.0067-42.0734,37.5566-74.4889,81.1911-73.318l168.5728.007,231.2427-.097c0,10.8705,11.5222,38.3191,0,38.3191-140.5903-.0124-392.6144-.1766-402.1689-.0354-21.2018.0449-38.3509,15.8019-38.3509,35.1242,0,19.3704,17.1904,35.1263,38.323,35.1263,11.7612,0,21.3369,8.9025,21.3369,19.8433v18.3883h-21.3369c-43.4581,0-78.8097-32.9101-78.8097-73.358ZM893.915,792.6004c0,38.4243-31.5094,69.8923-73.2816,73.1892-2.4869.1326-135.736-.0292-183.4382-.0444v-18.3992c0-10.8705,9.3647-19.714,20.887-19.714h159.3967c19.5026-.6958,35.9495-16.7088,35.9495-35.0317,0-16.6947-13.7278-34.6805-39.1732-35.135-11.2978-.1937-20.4862-9.0362-20.4862-19.7097v-18.7254l21.6166.2197c43.2688.0693,78.5295,32.9755,78.5295,73.3504Z"/>
    <path id="T" class="cls-2" d="M972.8192,683.5439h20.8338c11.5103,0,20.8667,8.8442,20.8667,19.7179v162.4204h-20.8321c-11.5042,0-20.8684-8.8442-20.8684-19.7147v-162.4237Z"/>
    <path id="R" class="cls-2" d="M1132.8761,633.5557c-14.8653,0-24.205,16.7432-24.205,2.6201l40.5236-22.0047c.6447,0,99.1253-3.7879,100.2675-3.7928,47.7262-.8586,80.9503,35.0509,80.9503,73.4063-.3716,38.7745-32.361,70.3328-72.598,73.087,62.5992,72.2273,50.6787,59.6953,95.3742,111.0951h-39.5777c-7.4602,0-14.1989-3.121-19.5011-8.208-8.0425-9.1054,30.3774,34.8621-122.1962-140.9537,84.0135-.0704,78.6012-.155,79.7366-.0748,21.3171-.1801,38.2105-15.5068,38.5677-35.0242-.3572-19.5158-17.2428-34.8435-38.5677-35.0236,0,0-41.1338-15.1266-118.7743-15.1266Z"/>
  </g>
  <g id="E_R_S_E" data-name="E R S E">
    <path id="E" class="cls-2" d="M1879.975,626.0063h245.6899v10.1818c0,6.0198-8.9617,10.9171-19.9797,10.9171h-213.819c-6.5574,0-11.8913-2.9518-11.8913-6.5798v-14.5191ZM2081.3943,761.9754h-212.2688v-26.5226c0-6.3456,5.4078-11.5102,12.0446-11.5102h221.0867v18.3575c-.0078,10.8497-9.3653,19.6753-20.8625,19.6753ZM2129.4881,870.3368h-260.3626v-26.5842c0-6.3127,5.3732-11.4486,11.9738-11.4486h227.5335c11.4978,0,20.8553,8.8267,20.8553,19.672v18.3608Z"/>
    <path id="R-2" data-name="R" class="cls-2" d="M1881.6815,653.39c-15.0781,0-12.3405-11.3585-12.3405-25.3251v-12.4628c.6539,0,390.2208.0049,391.3793,0,48.4094-.8491,82.1091,34.6626,82.1091,72.593-.377,38.345-32.8243,69.5536-73.6373,72.2773,63.4954,71.4271,51.4042,59.0339,96.7396,109.8644h-40.1443c-7.567,0-14.4021-3.0864-19.7802-8.1171-8.1576-9.0045,30.8123,34.4759-123.9455-139.3922,85.2163-.0696,79.7264-.1533,80.8781-.0739,21.6223-.1781,38.7575-15.335,39.1198-34.6362-.3623-19.2996-17.4896-34.4575-39.1198-34.6356,0,0-302.5063-.0918-381.2583-.0918Z"/>
    <path id="S-2" data-name="S" class="cls-2" d="M2361.7902,688.7542c.0067-41.9692,37.5287-74.3044,81.1308-73.1364l428.4477.007v18.3406c0,10.8435.6426,19.6959-10.8711,19.6959-140.4859-.0124-410.3808-.0852-419.9282.0557-21.1861.0448-38.3225,15.7628-38.3225,35.0372,0,19.3224,17.1777,35.0394,38.2946,35.0394,11.7524,0,21.3211,8.8805,21.3211,19.7942v18.3428h-21.3211c-43.4258,0-78.7512-32.8286-78.7512-73.1764ZM2622.0024,797.2771c0,38.3291-31.4417,70.1066-73.1829,73.3953-2.485.1322-135.6795-.4164-183.3464-.4316v-18.3536c0-10.8435,9.3578-19.6652,20.8715-19.6652h159.2784c19.4881-.6941,35.9228-16.6674,35.9228-34.9449,0-16.6534-13.7176-34.5946-39.1441-35.048-11.2895-.1932-20.471-9.0138-20.471-19.6609v-18.6791l18.4822.1962c43.2367.0691,81.5895,32.9168,81.5895,73.1918Z"/>
    <path id="E-2" data-name="E" class="cls-2" d="M2611.3455,626.5489l256.2544-.0151v7.4454c0,4.402-9.3471,7.9831-20.8388,7.9831l-223.0119-.0161c-6.8394,0-12.4038-2.1424-12.4038-4.7954v-10.602ZM2823.3785,762.1682h-212.033v-26.5576c0-6.354,5.4018-11.5253,12.0312-11.5253h220.8411v18.3817c-.0078,10.864-9.3548,19.7012-20.8393,19.7012ZM2871.4188,870.6724h-260.0733v-26.6192c0-6.321,5.3673-11.4637,11.9605-11.4637h227.2807c11.485,0,20.8321,8.8383,20.8321,19.6979v18.385Z"/>
  </g>
  <path class="cls-2" d="M1550.1031,781.0891c-21.947,2.4755-23.9538,4.4822-26.429,26.4293-2.4755-21.9471-4.4822-23.9538-26.4292-26.4293,21.947-2.4755,23.9537-4.4822,26.4292-26.429,2.4752,21.9468,4.482,23.9535,26.429,26.429Z"/>
  <path class="cls-2" d="M500.0635,781.0891c-21.947,2.4755-23.9538,4.4822-26.429,26.4293-2.4755-21.9471-4.4822-23.9538-26.4292-26.4293,21.947-2.4755,23.9537-4.4822,26.4292-26.429,2.4752,21.9468,4.482,23.9535,26.429,26.429Z"/>
  <rect class="cls-2" x="1114.4805" y="610.3632" width="137.1699" height="38.3191"/>
</svg>